<?xml version="1.0" encoding="utf-8"?>
<!-- Generator: Adobe Illustrator 19.0.0, SVG Export Plug-In . SVG Version: 6.00 Build 0)  -->
<svg version="1.1" id="layer" xmlns="http://www.w3.org/2000/svg" xmlns:xlink="http://www.w3.org/1999/xlink" x="0px" y="0px"
	 viewBox="-153 -46 652 652" style="enable-background:new -153 -46 652 652;" xml:space="preserve">
<style type="text/css">
	.st0{fill:#D6001C;}
</style>
<path class="st0" d="M130.2,220.6v50H78.8v-50H62.3v107.7h16.5v-51.3h51.4v51.3h16.5V220.6H130.2z M213.3,330.6
	c29.7,0,52-22.1,52-56.4c0-34.4-22.5-56.3-52-56.3s-52.4,21.9-52.4,56.3C160.9,308.5,183.7,330.6,213.3,330.6 M213.3,324.9
	c-22.2,0-34.8-21.5-34.8-50.7c0-29.1,12.6-50.6,34.8-50.6c22.2,0,34.4,21.4,34.4,50.6C247.7,303.4,235.4,324.9,213.3,324.9
	 M364.4,220.6l-31.8,80.2l-32.3-80.2h-20.5v107.7h7.4V229l37.9,94.4h6l38.4-95.5v100.3H386V220.6H364.4z M421.6,321.9v-45h44.6v-6.3
	h-44.6v-43.7h46.2v-6.3h-62.7v107.7h63.5v-6.3H421.6z"/>
<path class="st0" d="M-10.2,222.6c6.2-3.1,9.3-2.7,9.4,0.4c0.1,4.1-0.5,9.4-1,13.3c-2.4,21.2-6.2,38.5-6.5,60.2
	C2,270.1,10.6,251.6,21.6,229c3.5-7.3,5.8-5.9,8.6-7.2c11.3-5,11.7-1.9,10.2,4.2C35,248.6,21.1,319.9,19,330.8
	c-0.6,3.2-4.1,1.8-4.9,0.6c-4.1-5.6-8.6-5.7-8-9.3c2.5-18.3,11.5-64.2,13.8-75c-12,24.6-24.3,55.3-30.8,72.8
	c-1.4,3.6-3.9,3.4-5.4,0.6c-2.1-3.8-6.3-5.7-7.1-10.2c-2.1-14.3,2.6-41.5,3.2-58.7c-6.5,18.9-17.5,55.3-22.3,71.8
	c-1.9,6.9-8.6,5.8-6.9-0.9c7.3-27.8,23-76.7,29.8-94.3C-17.9,224.1-13.7,224.3-10.2,222.6"/>
<path class="st0" d="M-49.9,219.1c-2.1-0.5-8.3,2.8-12.1,3.4c-1.2,0.2-2.3,1.5-2.7,2.5c-6.1,13.8-11.5,27-16.2,39.1
	c-6,1-13,2.4-20.8,4.1c5.6-14.4,11.3-28.6,16.8-42.3c2.7-6.6-4.5-7.3-7.3-0.5c-3.6,8.9-10.4,25.5-17.9,44.9
	c-5.5,1.3-11.4,2.9-17.5,4.6c-4.4,1.3-4.6,2.5-2.7,5.1c1.1,1.5,3.2,1.3,4.3,2.4c2.6,2.8,4.1,6,8.8,6.5c-4.2,11-8.4,22.5-12,33.4
	c-2.4,6.9,4.3,8.4,6.9,1c4.2-11.7,8.6-23.6,13.1-35.5c3.6-0.9,12.8-2.8,21.1-4.6c-6.6,18.1-11,31.9-12.6,38.7
	c-0.3,1.3,0.2,2,0.4,2.6c2.3,3.2,4.4,3.4,7.3,7.4c0.8,1.1,3.4,1.7,4.3-1c6.1-18.6,12.5-36,18.4-51.7c2.4-0.5,6.9-1.6,9.5-5.7
	c4.8-7.1,6.2-5.7,7.3-7.8c1.5-2.8,0.5-5.3-4.6-4.7c0,0-1.9,0.2-5.5,0.6c5.7-14.7,10.6-27.1,14.1-36.5
	C-48.1,221.8-48,219.6-49.9,219.1"/>
<path class="st0" d="M-63.3,307.6c-1.8,1.1-3.3-0.1-0.8-3.5c0.4-0.6,0.9-1.2,1.3-1.7c0.4,1.3,0.9,2.7,1.3,4
	C-62.2,306.7-62.7,307.1-63.3,307.6 M-60,291.3c-0.4,0.5-0.9,1-1.3,1.4c-0.1-0.3-0.2-0.8-0.3-1C-63,286.4-56.9,287.7-60,291.3
	 M-56.8,301.8c-0.3,0.4-0.9,0.8-1.3,1.3c-0.5-1.6-1.1-3.2-1.5-4.7c1.4-1.8,2.8-3.5,4-5.4c4.9-7.7-4.7-12.1-9-7.1
	c-2.1,2.6-1.6,5.3-1,7.4c0.1,0.8,0.4,1.7,0.9,2.9c-1.3,1.2-2.7,2.8-4.6,4.9c-4.7,5.6-3.4,12.6,1.6,14.3c3.1,1,6-0.4,8.5-2.7
	c0.2,0.3,0.3,0.6,0.4,1c1.3,3.3,5.5,2.4,3.9-1.7c-0.3-0.6-0.6-1.6-1-2.7c0.8-1.1,1.5-2,2.1-3C-50.8,301.8-53.7,299.1-56.8,301.8"/>
</svg>
